<svg xmlns="http://www.w3.org/2000/svg" xmlns:xlink="http://www.w3.org/1999/xlink" version="1.1" x="0px" y="0px" viewBox="0 0 60 75" enable-background="new 0 0 60 60" xml:space="preserve"><g><path d="M25.5,18h10c1.29,0,2.41-0.84,2.83-2h4.17c0.88,0,1.71-0.39,2.29-1.06c0.57-0.67,0.82-1.56,0.67-2.44   c-0.23-1.43-1.55-2.5-3.07-2.5h-0.06c0.16-0.46,0.21-0.98,0.13-1.5C42.23,7.08,40.91,6,39.39,6H34.5c-1.29,0-2.41,0.84-2.83,2   h-2.06c-1.52,0-2.83,1.08-3.07,2.5c-0.08,0.52-0.03,1.03,0.13,1.5h-1.06c-1.52,0-2.83,1.08-3.07,2.5c-0.14,0.88,0.1,1.77,0.67,2.44   C23.79,17.61,24.62,18,25.5,18z M25.61,14h3.25c0.52,0,0.96-0.37,1.04-0.89l0.1-0.9l-0.81-0.27c-0.4-0.13-0.76-0.56-0.67-1.12   c0.08-0.46,0.55-0.82,1.09-0.82h2.84l1.03-0.05l0.02-0.98C33.51,8.44,33.96,8,34.5,8h4.89c0.54,0,1.02,0.36,1.09,0.82   c0.09,0.56-0.27,0.99-0.67,1.12c-0.49,0.16-0.79,0.65-0.71,1.16L39.3,12h3.1c0.54,0,1.02,0.36,1.09,0.82   c0.05,0.3-0.03,0.6-0.22,0.82C43.07,13.87,42.79,14,42.5,14h-4.95l-1.03,0.05l-0.02,0.98c-0.01,0.54-0.46,0.97-1,0.97h-10   c-0.29,0-0.57-0.13-0.76-0.35c-0.19-0.23-0.27-0.52-0.22-0.82C24.59,14.36,25.07,14,25.61,14z"/><path d="M58.53,20.73c-0.01-0.03-0.02-0.06-0.03-0.09c-0.69-2.09-1.6-4.09-2.71-5.95c-0.01-0.03-0.03-0.05-0.04-0.07   C50.49,5.87,40.92,0,30,0C21.53,0,13.87,3.54,8.4,9.21C8.35,9.26,8.3,9.31,8.25,9.37c-1.51,1.59-2.86,3.35-3.99,5.24   c-0.01,0.03-0.03,0.05-0.04,0.07C1.54,19.17,0,24.41,0,30c0,16.54,13.46,30,30,30s30-13.46,30-30C60,26.76,59.48,23.65,58.53,20.73   z M53,14.06h-4c-0.55,0-1,0.45-1,1s0.45,1,1,1h5.27c0.73,1.27,1.37,2.61,1.9,3.99H28c-0.55,0-1,0.45-1,1s0.45,1,1,1h28.84   c0.38,1.28,0.67,2.6,0.87,3.95H40c-0.55,0-1,0.45-1,1s0.45,1,1,1h17.92c0.05,0.66,0.08,1.33,0.08,2c0,0.67-0.03,1.34-0.08,2H41.23   c-3.57,0-7.05-0.98-10.06-2.83C28.87,27.75,26.04,27,23,27s-5.87,0.75-8.17,2.17C11.82,31.02,8.34,32,4.77,32H2.08   C2.03,31.34,2,30.67,2,30c0-1.34,0.1-2.65,0.28-3.94H15c0.55,0,1-0.45,1-1s-0.45-1-1-1H2.64C2.87,23.02,3.15,22,3.49,21h5.37   c0.55,0,1-0.45,1-1s-0.45-1-1-1h-4.6c0.43-1.01,0.93-1.99,1.48-2.94H11c0.55,0,1-0.45,1-1s-0.45-1-1-1H7   c0.76-1.09,1.59-2.12,2.49-3.09h8.58c0.55,0,1-0.45,1-1s-0.45-1-1-1h-6.52C16.48,4.64,22.93,2,30,2C39.52,2,47.94,6.78,53,14.06z    M4.71,42h0.06c3.57,0,7.05,0.98,10.06,2.83C17.13,46.25,19.96,47,23,47s5.87-0.75,8.17-2.17c3-1.85,6.48-2.83,10.06-2.83h14.06   c-0.67,1.4-1.45,2.74-2.33,4H41.23c-2.65,0-5.22,0.72-7.43,2.09C30.7,49.99,26.97,51,23,51s-7.7-1.01-10.79-2.91   c-1.53-0.94-3.22-1.56-5.01-1.86C6.25,44.89,5.41,43.48,4.71,42z M41.23,40c-3.94,0-7.78,1.08-11.11,3.12   C28.13,44.35,25.67,45,23,45s-5.13-0.65-7.12-1.88C12.55,41.08,8.71,40,4.77,40H3.85c-0.73-1.91-1.26-3.92-1.56-6h2.48   c3.94,0,7.78-1.08,11.1-3.12C17.87,29.65,20.33,29,23,29s5.13,0.65,7.12,1.88C33.45,32.92,37.29,34,41.23,34h16.48   c-0.3,2.08-0.83,4.09-1.56,6H41.23z M45.94,53H35c-0.55,0-1,0.45-1,1s0.45,1,1,1h7.59c-3.79,1.91-8.06,3-12.59,3   c-8.16,0-15.52-3.51-20.64-9.1c0.62,0.25,1.22,0.54,1.8,0.89C14.57,51.89,18.66,53,23,53s8.43-1.11,11.84-3.21   c1.9-1.17,4.11-1.79,6.39-1.79h10.2C49.83,49.9,47.98,51.58,45.94,53z"/><path d="M23,31c-4.96,0-9,2.69-9,6s4.04,6,9,6s9-2.69,9-6S27.96,31,23,31z M23,41c-3.73,0-7-1.87-7-4s3.27-4,7-4s7,1.87,7,4   S26.73,41,23,41z"/><circle cx="5" cy="5" r="1"/><circle cx="19" cy="20" r="1"/><circle cx="22" cy="24" r="1"/><circle cx="41" cy="37" r="1"/><circle cx="8" cy="56" r="1"/><circle cx="3" cy="49" r="1"/><circle cx="14" cy="2" r="1"/><circle cx="48" cy="12" r="1"/><circle cx="56" cy="55" r="1"/></g></svg>