<svg xmlns="http://www.w3.org/2000/svg" xmlns:xlink="http://www.w3.org/1999/xlink" version="1.1" x="0px" y="0px" viewBox="0 0 60.01 75" enable-background="new 0 0 60.01 60" xml:space="preserve"><g><path d="M35.75,29.32c-0.63-2.94-1.18-5.48-4.71-5.57c-2.8-0.07-5.8-0.38-9.43-0.98c-2.71-0.45-5.15-0.68-7.25-0.68   c-4.09,0-6.92,0.88-8.4,2.6c-1.02,1.19-1.4,2.73-1.11,4.59c0.6,3.94-0.86,5.21-2.41,6.56c-2.81,2.44-4.21,4.65,1.58,12.87   C6.08,51.64,13.98,60,22.9,60c0,0,0,0,0,0c3.11,0,5.99-1.04,8.56-3.08l0.18-0.15l0.02-0.05c0.04-0.04,0.09-0.08,0.15-0.14   c7.53-6.81,9.98-13.54,6.89-18.95C36.83,34.37,36.23,31.57,35.75,29.32z M30.47,55.1c-0.15,0.13-0.25,0.22-0.32,0.3   c-2.19,1.73-4.63,2.6-7.25,2.6c0,0,0,0,0,0c-7.47,0-14.84-7.04-17.25-10.44c-5.19-7.35-3.88-8.49-1.91-10.2   c1.62-1.41,3.85-3.34,3.08-8.37C6.63,27.71,6.84,26.74,7.47,26c1.07-1.25,3.45-1.91,6.88-1.91c2,0,4.33,0.22,6.92,0.65   c3.72,0.62,6.81,0.94,9.7,1.01c1.88,0.05,2.15,0.93,2.81,3.99c0.48,2.26,1.15,5.34,3.18,8.89C40.44,44.71,34.39,51.56,30.47,55.1z"/><path d="M39.13,20.88c-0.39-0.39-1.02-0.39-1.41,0l-1.41,1.41c-0.39,0.39-0.39,1.02,0,1.41c0.2,0.2,0.45,0.29,0.71,0.29   s0.51-0.1,0.71-0.29l1.41-1.41C39.52,21.9,39.52,21.27,39.13,20.88z"/><path d="M45.09,13.5l-2.95,2.95c-0.39,0.39-0.39,1.02,0,1.41c0.2,0.2,0.45,0.29,0.71,0.29s0.51-0.1,0.71-0.29l2.95-2.95   c0.39-0.39,0.39-1.02,0-1.41S45.48,13.11,45.09,13.5z"/><path d="M49.51,10.49c0.2,0.2,0.45,0.29,0.71,0.29s0.51-0.1,0.71-0.29l2.95-2.95c0.39-0.39,0.39-1.02,0-1.41s-1.02-0.39-1.41,0   l-2.95,2.95C49.12,9.47,49.12,10.1,49.51,10.49z"/><path d="M59.71,0.29c-0.39-0.39-1.02-0.39-1.41,0l-1.41,1.41c-0.39,0.39-0.39,1.02,0,1.41c0.2,0.2,0.45,0.29,0.71,0.29   s0.51-0.1,0.71-0.29l1.41-1.41C60.11,1.32,60.11,0.68,59.71,0.29z"/><path d="M39.01,29c0.26,0,0.51-0.1,0.71-0.29l1.41-1.41c0.39-0.39,0.39-1.02,0-1.41s-1.02-0.39-1.41,0l-1.41,1.41   c-0.39,0.39-0.39,1.02,0,1.41C38.5,28.9,38.75,29,39.01,29z"/><path d="M45.93,19.66l-2.49,2.49c-0.39,0.39-0.39,1.02,0,1.41c0.2,0.2,0.45,0.29,0.71,0.29s0.51-0.1,0.71-0.29l2.49-2.49   c0.39-0.39,0.39-1.02,0-1.41S46.33,19.27,45.93,19.66z"/><path d="M53.57,14.85c0.39-0.39,0.39-1.02,0-1.41s-1.02-0.39-1.41,0l-2.49,2.49c-0.39,0.39-0.39,1.02,0,1.41   c0.2,0.2,0.45,0.29,0.71,0.29s0.51-0.1,0.71-0.29L53.57,14.85z"/><path d="M57.3,8.29l-1.41,1.41c-0.39,0.39-0.39,1.02,0,1.41c0.2,0.2,0.45,0.29,0.71,0.29s0.51-0.1,0.71-0.29l1.41-1.41   c0.39-0.39,0.39-1.02,0-1.41S57.69,7.9,57.3,8.29z"/><path d="M31.71,18.88l-1.41,1.41c-0.39,0.39-0.39,1.02,0,1.41c0.2,0.2,0.45,0.29,0.71,0.29s0.51-0.1,0.71-0.29l1.41-1.41   c0.39-0.39,0.39-1.02,0-1.41S32.11,18.49,31.71,18.88z"/><path d="M41.67,10.34c0.2,0.2,0.45,0.29,0.71,0.29s0.51-0.1,0.71-0.29l2.49-2.49c0.39-0.39,0.39-1.02,0-1.41s-1.02-0.39-1.41,0   l-2.49,2.49C41.28,9.32,41.28,9.95,41.67,10.34z"/><path d="M35.45,16.56c0.2,0.2,0.45,0.29,0.71,0.29s0.51-0.1,0.71-0.29l2.49-2.49c0.39-0.39,0.39-1.02,0-1.41s-1.02-0.39-1.41,0   l-2.49,2.49C35.06,15.54,35.06,16.17,35.45,16.56z"/><path d="M48.59,4.41c0.26,0,0.51-0.1,0.71-0.29l1.41-1.41c0.39-0.39,0.39-1.02,0-1.41s-1.02-0.39-1.41,0l-1.41,1.41   c-0.39,0.39-0.39,1.02,0,1.41C48.08,4.32,48.34,4.41,48.59,4.41z"/><path d="M26.71,16.88l-1.41,1.41c-0.39,0.39-0.39,1.02,0,1.41c0.2,0.2,0.45,0.29,0.71,0.29s0.51-0.1,0.71-0.29l1.41-1.41   c0.39-0.39,0.39-1.02,0-1.41S27.11,16.49,26.71,16.88z"/><path d="M31.28,13.73c0.2,0.2,0.45,0.29,0.71,0.29s0.51-0.1,0.71-0.29l3.04-3.04c0.39-0.39,0.39-1.02,0-1.41s-1.02-0.39-1.41,0   l-3.04,3.04C30.89,12.71,30.89,13.34,31.28,13.73z"/><path d="M39.59,6.41c0.26,0,0.51-0.1,0.71-0.29l1.41-1.41c0.39-0.39,0.39-1.02,0-1.41s-1.02-0.39-1.41,0l-1.41,1.41   c-0.39,0.39-0.39,1.02,0,1.41C39.08,6.32,39.34,6.41,39.59,6.41z"/><path d="M41.71,34.71l1.41-1.41c0.39-0.39,0.39-1.02,0-1.41s-1.02-0.39-1.41,0l-1.41,1.41c-0.39,0.39-0.39,1.02,0,1.41   c0.2,0.2,0.45,0.29,0.71,0.29S41.52,34.9,41.71,34.71z"/><path d="M49.32,24.27l-3.04,3.04c-0.39,0.39-0.39,1.02,0,1.41c0.2,0.2,0.45,0.29,0.71,0.29s0.51-0.1,0.71-0.29l3.04-3.04   c0.39-0.39,0.39-1.02,0-1.41S49.71,23.88,49.32,24.27z"/><path d="M55.3,18.29l-1.41,1.41c-0.39,0.39-0.39,1.02,0,1.41c0.2,0.2,0.45,0.29,0.71,0.29s0.51-0.1,0.71-0.29l1.41-1.41   c0.39-0.39,0.39-1.02,0-1.41S55.69,17.9,55.3,18.29z"/><path d="M13.01,19c0.26,0,0.51-0.1,0.71-0.29l1.41-1.41c0.39-0.39,0.39-1.02,0-1.41s-1.02-0.39-1.41,0l-1.41,1.41   c-0.39,0.39-0.39,1.02,0,1.41C12.5,18.9,12.75,19,13.01,19z"/><path d="M17.49,14.52c0.26,0,0.51-0.1,0.71-0.29l2.04-2.04c0.39-0.39,0.39-1.02,0-1.41s-1.02-0.39-1.41,0l-2.04,2.04   c-0.39,0.39-0.39,1.02,0,1.41C16.97,14.42,17.23,14.52,17.49,14.52z"/><path d="M22.59,9.41c0.26,0,0.51-0.1,0.71-0.29l1.41-1.41c0.39-0.39,0.39-1.02,0-1.41s-1.02-0.39-1.41,0l-1.41,1.41   c-0.39,0.39-0.39,1.02,0,1.41C22.08,9.32,22.34,9.41,22.59,9.41z"/><path d="M42.71,45.88l-1.41,1.41c-0.39,0.39-0.39,1.02,0,1.41c0.2,0.2,0.45,0.29,0.71,0.29s0.51-0.1,0.71-0.29l1.41-1.41   c0.39-0.39,0.39-1.02,0-1.41S43.11,45.49,42.71,45.88z"/><path d="M47.82,40.77l-2.04,2.04c-0.39,0.39-0.39,1.02,0,1.41c0.2,0.2,0.45,0.29,0.71,0.29s0.51-0.1,0.71-0.29l2.04-2.04   c0.39-0.39,0.39-1.02,0-1.41S48.21,40.38,47.82,40.77z"/><path d="M52.3,36.29l-1.41,1.41c-0.39,0.39-0.39,1.02,0,1.41c0.2,0.2,0.45,0.29,0.71,0.29s0.51-0.1,0.71-0.29l1.41-1.41   c0.39-0.39,0.39-1.02,0-1.41S52.69,35.9,52.3,36.29z"/><path d="M43.71,37.88l-1.41,1.41c-0.39,0.39-0.39,1.02,0,1.41c0.2,0.2,0.45,0.29,0.71,0.29s0.51-0.1,0.71-0.29l1.41-1.41   c0.39-0.39,0.39-1.02,0-1.41S44.11,37.49,43.71,37.88z"/><path d="M48.82,32.77l-2.04,2.04c-0.39,0.39-0.39,1.02,0,1.41c0.2,0.2,0.45,0.29,0.71,0.29s0.51-0.1,0.71-0.29l2.04-2.04   c0.39-0.39,0.39-1.02,0-1.41S49.21,32.38,48.82,32.77z"/><path d="M53.3,28.29l-1.41,1.41c-0.39,0.39-0.39,1.02,0,1.41c0.2,0.2,0.45,0.29,0.71,0.29s0.51-0.1,0.71-0.29l1.41-1.41   c0.39-0.39,0.39-1.02,0-1.41S53.69,27.9,53.3,28.29z"/><path d="M19.3,18.71c0.2,0.2,0.45,0.29,0.71,0.29s0.51-0.1,0.71-0.29l1.41-1.41c0.39-0.39,0.39-1.02,0-1.41s-1.02-0.39-1.41,0   l-1.41,1.41C18.91,17.68,18.91,18.32,19.3,18.71z"/><path d="M23.78,14.23c0.2,0.2,0.45,0.29,0.71,0.29s0.51-0.1,0.71-0.29l2.04-2.04c0.39-0.39,0.39-1.02,0-1.41s-1.02-0.39-1.41,0   l-2.04,2.04C23.39,13.21,23.39,13.84,23.78,14.23z"/><path d="M29.59,9.41c0.26,0,0.51-0.1,0.71-0.29l1.41-1.41c0.39-0.39,0.39-1.02,0-1.41s-1.02-0.39-1.41,0l-1.41,1.41   c-0.39,0.39-0.39,1.02,0,1.41C29.08,9.32,29.34,9.41,29.59,9.41z"/><path d="M16.95,43.21c-0.39-0.39-1.02-0.39-1.41,0c-1.13,1.13-3.11,1.13-4.24,0c-0.57-0.57-0.88-1.32-0.88-2.12   s0.31-1.55,0.88-2.12c0.39-0.39,0.39-1.02,0-1.41s-1.02-0.39-1.41,0c-0.94,0.94-1.46,2.2-1.46,3.54s0.52,2.59,1.46,3.54   s2.2,1.46,3.54,1.46c1.34,0,2.59-0.52,3.54-1.46C17.34,44.24,17.34,43.6,16.95,43.21z"/><path d="M16,33.09c2.76,0,5-2.24,5-5c0-0.55-0.45-1-1-1s-1,0.45-1,1c0,1.65-1.35,3-3,3s-3-1.35-3-3c0-0.55-0.45-1-1-1s-1,0.45-1,1   C11,30.85,13.24,33.09,16,33.09z"/><path d="M25,37.92c1.28,0,2.56-0.49,3.54-1.46c1.95-1.95,1.95-5.12,0-7.07c-0.39-0.39-1.02-0.39-1.41,0s-0.39,1.02,0,1.41   c1.17,1.17,1.17,3.07,0,4.24c-1.17,1.17-3.07,1.17-4.24,0c-0.39-0.39-1.02-0.39-1.41,0s-0.39,1.02,0,1.41   C22.44,37.43,23.72,37.92,25,37.92z"/><path d="M22,48.09c-2.76,0-5,2.24-5,5c0,0.55,0.45,1,1,1s1-0.45,1-1c0-1.65,1.35-3,3-3s3,1.35,3,3c0,0.55,0.45,1,1,1s1-0.45,1-1   C27,50.34,24.76,48.09,22,48.09z"/><path d="M32,41.09c0.55,0,1-0.45,1-1s-0.45-1-1-1c-2.76,0-5,2.24-5,5s2.24,5,5,5c0.55,0,1-0.45,1-1s-0.45-1-1-1c-1.65,0-3-1.35-3-3   S30.34,41.09,32,41.09z"/></g></svg>