<svg xmlns="http://www.w3.org/2000/svg" xmlns:xlink="http://www.w3.org/1999/xlink" version="1.1" x="0px" y="0px" viewBox="0 0 58.34 72.4875" enable-background="new 0 0 58.34 57.99" xml:space="preserve"><g><path d="M1.56,9.98h1.59l2.41,2.41v1.59c0,0.55,0.45,1,1,1s1-0.45,1-1v-1.59l2.41-2.41h1.59c0.55,0,1-0.45,1-1s-0.45-1-1-1H9.98   L7.56,5.57V3.98c0-0.55-0.45-1-1-1s-1,0.45-1,1v1.59L3.15,7.98H1.56c-0.55,0-1,0.45-1,1S1.01,9.98,1.56,9.98z M6.56,7.39l1.59,1.59   l-1.59,1.59L4.98,8.98L6.56,7.39z"/><circle cx="49.56" cy="54.98" r="1"/><circle cx="54.56" cy="34.98" r="1"/><circle cx="4.56" cy="23.98" r="1"/><circle cx="23.56" cy="24.98" r="1"/><circle cx="30.56" cy="55.98" r="1"/><path d="M56.3,2.3c-4.57-4.96-12.53-0.79-16.88,2.14c-2.95,1.99-4.43,3.1-5.18,3.78c-6.91-1.66-14.5,0.18-19.88,5.56   c-5.39,5.39-7.23,12.99-5.55,19.91c-1.46,1.86-2.73,3.59-3.79,5.15C1.27,44.4-2.45,51.36,2.09,55.9c1.49,1.49,3.24,2.09,5.12,2.09   c3.84,0,8.21-2.51,11.94-5.02c1.63-1.1,3.36-2.38,5.14-3.77c1.64,0.4,3.31,0.6,4.97,0.6c5.54,0,10.95-2.17,14.95-6.17   c5.2-5.2,7.3-12.78,5.57-19.92c1.4-1.78,2.68-3.51,3.77-5.14C57.18,13.19,60.68,7.06,56.3,2.3z M15.78,15.2   c5.03-5.03,12.19-6.65,18.6-4.89l0.73,0.27l0.02-0.05c0.26,0.08,0.51,0.18,0.77,0.27c0.27,0.1,0.54,0.19,0.8,0.3   c0.32,0.13,0.63,0.28,0.93,0.43c0.28,0.14,0.56,0.27,0.83,0.42c1.56,0.85,3.02,1.92,4.34,3.24c1,1,1.89,2.14,2.67,3.38   c-2.99,3.93-7.05,8.64-12.36,13.94c-4.78,4.78-9.6,9.04-13.95,12.35c-1.23-0.77-2.37-1.66-3.37-2.66   c-1.31-1.31-2.38-2.77-3.23-4.32c-0.1-0.18-0.2-0.36-0.29-0.54c-0.19-0.37-0.36-0.75-0.52-1.13c-0.13-0.3-0.25-0.61-0.36-0.92   c-0.08-0.21-0.16-0.43-0.23-0.65c-0.1-0.31-0.2-0.62-0.28-0.93C9.15,27.32,10.77,20.21,15.78,15.2z M46.74,16.86   c-0.75-1.11-1.6-2.14-2.53-3.07c-0.96-0.96-1.99-1.79-3.07-2.52c7.43-5.38,10.28-5.52,10.7-5.11C52.62,6.93,51.11,10.8,46.74,16.86   z M14.37,43.63c0.93,0.93,1.96,1.77,3.07,2.52c-0.67,0.48-1.32,0.94-1.96,1.37c-6.12,4.13-8.39,4.09-8.75,3.74   c-0.41-0.41-0.28-3.26,5.11-10.7C12.58,41.64,13.41,42.67,14.37,43.63z M42.8,42.21c-4.32,4.33-10.48,6.28-16.47,5.35   c3.69-3.03,7.58-6.56,11.42-10.4c3.84-3.84,7.37-7.73,10.4-11.42C49.08,31.73,47.12,37.89,42.8,42.21z M51.89,17.45   c-3.66,5.43-9.19,11.93-15.56,18.3s-12.87,11.89-18.3,15.56c-4.92,3.32-11.02,6.68-14.53,3.18c-3.5-3.5-0.14-9.61,3.18-14.53   c0.82-1.21,1.77-2.53,2.83-3.92c0.03,0.07,0.06,0.13,0.08,0.2c0.11,0.28,0.22,0.56,0.34,0.83c0.14,0.32,0.29,0.64,0.44,0.95   c0.1,0.21,0.2,0.43,0.31,0.64c0.01,0.02,0.02,0.03,0.02,0.05c-5.46,7.38-7.28,12.08-5.39,13.96c1.65,1.65,5.34,0.51,11.28-3.49   c5.3-3.57,11.66-8.99,17.92-15.25c8.29-8.29,22.87-25.06,18.74-29.2c-1.88-1.88-6.58-0.07-13.95,5.39   c-0.05-0.03-0.11-0.05-0.16-0.08c-0.05-0.03-0.11-0.05-0.16-0.08c-0.52-0.27-1.05-0.51-1.59-0.74c-0.1-0.04-0.19-0.08-0.29-0.12   c-0.15-0.06-0.31-0.13-0.46-0.19c1.21-0.91,2.91-2.14,3.91-2.82c3.07-2.07,10.59-6.45,14.29-2.44   C57.89,6.98,55.97,11.4,51.89,17.45z"/></g></svg>