<svg xmlns="http://www.w3.org/2000/svg" xmlns:xlink="http://www.w3.org/1999/xlink" version="1.1" x="0px" y="0px" viewBox="0 0 53.97 73.075" enable-background="new 0 0 53.97 58.46" xml:space="preserve"><g><path d="M53.33,31.69c-0.6-2.42-1.61-4.7-3-6.78l-0.97-1.46c-0.42-0.63-1.12-1-1.87-1c-0.75,0-1.45,0.37-1.87,1l-0.97,1.46   c-1.38,2.08-2.39,4.36-3,6.78c-0.13,0.51-0.23,1.02-0.32,1.54l-2.66-1.66c1.97-10.18-1.1-21-8.7-28.6L27,0l-2.97,2.97   c-7.59,7.59-10.67,18.41-8.7,28.6l-2.68,1.68c-0.09-0.52-0.19-1.04-0.32-1.55c-0.6-2.42-1.61-4.7-3-6.78l-0.97-1.46   c-0.42-0.63-1.12-1-1.87-1c-0.75,0-1.45,0.37-1.87,1l-0.97,1.46c-1.38,2.08-2.39,4.36-3,6.78c-0.77,3.1-0.85,6.39-0.23,9.53   l1.25,6.24h9.64l0.69-3.44l6.3-3.94c0.15,0.3,0.29,0.6,0.45,0.9c1.47,2.61,2.25,5.41,2.25,8.12v1.29l-1.15,8.07h14.31L33,50.39   v-1.29c0-2.7,0.78-5.51,2.27-8.15c0.16-0.28,0.29-0.58,0.44-0.87L41.97,44l0.69,3.46h9.64l1.25-6.24   C54.18,38.09,54.1,34.79,53.33,31.69z M2.38,40.83c-0.57-2.84-0.5-5.83,0.21-8.65c0.55-2.2,1.46-4.27,2.72-6.15l0.97-1.46   c0.12-0.18,0.29-0.18,0.42,0l0.97,1.46c1.26,1.89,2.17,3.96,2.72,6.15c0.24,0.94,0.39,1.91,0.49,2.88   c0.09,0.93,0.11,1.85,0.07,2.77c0,0.11-0.01,0.22-0.02,0.33c-0.02,0.34-0.05,0.67-0.09,1.01c-0.01,0.13-0.03,0.25-0.04,0.37   c-0.06,0.43-0.12,0.86-0.21,1.28c0,0,0,0.01,0,0.01l-0.93,4.63H3.31L2.38,40.83z M12.53,41.32l0.02-0.1   c0.09-0.44,0.16-0.88,0.22-1.32c0.02-0.14,0.03-0.28,0.05-0.41c0.04-0.31,0.07-0.63,0.09-0.94c0.01-0.15,0.02-0.3,0.03-0.44   c0.02-0.33,0.03-0.66,0.03-0.98c0-0.12,0-0.24,0-0.36c0-0.43-0.02-0.86-0.05-1.29c0-0.01,0-0.02,0-0.04l2.88-1.8   c0.41,1.57,0.96,3.11,1.62,4.63L12.53,41.32z M22.15,56.46l0.71-5h8.27l0.71,5H22.15z M31,49.09v0.36h-8v-0.36   c0-3.05-0.87-6.2-2.52-9.13c-0.32-0.58-0.61-1.17-0.89-1.76c-0.19-0.41-0.37-0.83-0.55-1.25c-0.08-0.18-0.15-0.37-0.22-0.55   c-0.55-1.39-0.99-2.83-1.32-4.3c-2.22-9.8,0.6-20.36,7.95-27.71L27,2.83l1.56,1.56c7.38,7.38,10.2,18.01,7.91,27.86   c-0.32,1.39-0.74,2.75-1.26,4.07c-0.09,0.24-0.19,0.48-0.29,0.72c-0.16,0.39-0.33,0.77-0.5,1.15c-0.29,0.61-0.58,1.22-0.91,1.81   C31.86,42.9,31,46.05,31,49.09z M36.58,38.27c0.66-1.51,1.21-3.06,1.63-4.63l2.85,1.78c-0.03,0.45-0.05,0.89-0.05,1.34   c0,0.11,0,0.22,0,0.34c0,0.33,0.01,0.67,0.03,1c0.01,0.15,0.02,0.29,0.03,0.44c0.02,0.32,0.05,0.63,0.09,0.95   c0.02,0.14,0.03,0.28,0.05,0.41c0.06,0.44,0.13,0.88,0.22,1.32l0.02,0.08L36.58,38.27z M51.59,40.83l-0.93,4.63h-6.36l0,0l0,0   l-0.93-4.63c-0.09-0.43-0.15-0.86-0.21-1.29c-0.02-0.13-0.03-0.25-0.04-0.38c-0.04-0.33-0.07-0.67-0.09-1.01   c-0.01-0.11-0.01-0.22-0.02-0.33c-0.04-0.92-0.01-1.85,0.08-2.78c0.09-0.97,0.25-1.92,0.49-2.86c0.55-2.2,1.46-4.27,2.72-6.15   l0.97-1.46c0.12-0.18,0.29-0.18,0.42,0l0.97,1.46c1.26,1.89,2.17,3.96,2.72,6.15C52.09,34.99,52.16,37.98,51.59,40.83z"/><path d="M4,48.46c-0.55,0-1,0.45-1,1v2c0,0.55,0.45,1,1,1s1-0.45,1-1v-2C5,48.9,4.55,48.46,4,48.46z"/><path d="M9,48.46c-0.55,0-1,0.45-1,1v2c0,0.55,0.45,1,1,1s1-0.45,1-1v-2C10,48.9,9.55,48.46,9,48.46z"/><path d="M45,48.46c-0.55,0-1,0.45-1,1v2c0,0.55,0.45,1,1,1s1-0.45,1-1v-2C46,48.9,45.55,48.46,45,48.46z"/><path d="M50,48.46c-0.55,0-1,0.45-1,1v2c0,0.55,0.45,1,1,1s1-0.45,1-1v-2C51,48.9,50.55,48.46,50,48.46z"/><path d="M27,9.46c-3.31,0-6,2.69-6,6s2.69,6,6,6s6-2.69,6-6S30.31,9.46,27,9.46z M27,19.46c-2.21,0-4-1.79-4-4s1.79-4,4-4   s4,1.79,4,4S29.2,19.46,27,19.46z"/><path d="M27,24.46c-2.21,0-4,1.79-4,4s1.79,4,4,4s4-1.79,4-4S29.2,24.46,27,24.46z M27,30.46c-1.1,0-2-0.9-2-2s0.9-2,2-2s2,0.9,2,2   S28.1,30.46,27,30.46z"/><path d="M27,35.46c-2.21,0-4,1.79-4,4s1.79,4,4,4s4-1.79,4-4S29.2,35.46,27,35.46z M27,41.46c-1.1,0-2-0.9-2-2s0.9-2,2-2s2,0.9,2,2   S28.1,41.46,27,41.46z"/><path d="M25,52.46c-0.55,0-1,0.45-1,1v1c0,0.55,0.45,1,1,1s1-0.45,1-1v-1C26,52.9,25.55,52.46,25,52.46z"/><path d="M29,52.46c-0.55,0-1,0.45-1,1v1c0,0.55,0.45,1,1,1s1-0.45,1-1v-1C30,52.9,29.55,52.46,29,52.46z"/></g></svg>