<svg xmlns="http://www.w3.org/2000/svg" xmlns:xlink="http://www.w3.org/1999/xlink" version="1.1" x="0px" y="0px" viewBox="0 0 60 75" enable-background="new 0 0 60 60" xml:space="preserve"><g><path d="M30,20c-5.51,0-10,4.49-10,10s4.49,10,10,10s10-4.49,10-10S35.51,20,30,20z M37.38,33.08C37.26,33.03,37.14,33,37,33   c-0.55,0-1,0.45-1,1c0,0.32,0.16,0.6,0.4,0.78c-0.18,0.24-0.37,0.47-0.58,0.69C35.65,35.19,35.35,35,35,35c-0.55,0-1,0.45-1,1   c0,0.29,0.12,0.54,0.32,0.72C33.07,37.53,31.59,38,30,38c-4.41,0-8-3.59-8-8s3.59-8,8-8s8,3.59,8,8   C38,31.09,37.78,32.13,37.38,33.08z"/><path d="M30,10c-3.31,0-6.58,0.85-9.5,2.43C19.59,11.55,18.36,11,17,11c-2.76,0-5,2.24-5,5c0,1.23,0.46,2.33,1.19,3.2   C11.11,22.44,10,26.15,10,30c0,11.03,8.97,20,20,20s20-8.97,20-20S41.03,10,30,10z M17,13c1.01,0,1.9,0.51,2.45,1.27l0,0   c0.06,0.08,0.1,0.16,0.15,0.24c0.04,0.07,0.08,0.14,0.12,0.22c0.04,0.08,0.06,0.15,0.09,0.23c0.04,0.1,0.07,0.2,0.09,0.3   c0.02,0.06,0.03,0.13,0.05,0.19C19.98,15.64,20,15.82,20,16c0,1.65-1.35,3-3,3c-0.87,0-1.51-0.38-1.89-0.7l-0.24-0.2   C14.33,17.57,14,16.82,14,16C14,14.35,15.35,13,17,13z M30,48c-9.93,0-18-8.07-18-18c0-3.4,0.95-6.68,2.75-9.55   c0.04,0.02,0.09,0.04,0.13,0.06c0.1,0.05,0.2,0.1,0.31,0.14c0.24,0.1,0.49,0.17,0.74,0.23c0.06,0.01,0.12,0.02,0.18,0.03   C16.4,20.96,16.7,21,17,21c2.76,0,5-2.24,5-5c0-0.33-0.03-0.66-0.1-0.99c-0.06-0.29-0.15-0.56-0.25-0.83   c-0.01-0.03-0.02-0.06-0.03-0.09C24.21,12.72,27.09,12,30,12c9.93,0,18,8.07,18,18S39.93,48,30,48z"/><path d="M55.16,13.71C56.3,12.46,57,10.81,57,9c0-3.86-3.14-7-7-7c-1.94,0-3.69,0.79-4.96,2.06C40.48,1.41,35.3,0,30,0   C13.46,0,0,13.46,0,30c0,6.04,1.8,11.83,5.18,16.81C4.46,47.68,4,48.78,4,50c0,2.76,2.24,5,5,5c1.13,0,2.17-0.39,3.01-1.03   C17.23,57.9,23.43,60,30,60c16.54,0,30-13.46,30-30C60,24.18,58.32,18.57,55.16,13.71z M55,9c0,1.62-0.79,3.06-2,3.97   c-0.12,0.09-0.23,0.18-0.36,0.25c-0.14,0.09-0.29,0.16-0.44,0.24c-0.13,0.06-0.25,0.13-0.38,0.18c-0.17,0.07-0.35,0.12-0.53,0.16   c-0.12,0.03-0.24,0.07-0.36,0.1C50.63,13.96,50.32,14,50,14c-2.76,0-5-2.24-5-5c0-0.32,0.04-0.62,0.09-0.92   c0.02-0.1,0.05-0.19,0.07-0.29c0.05-0.2,0.11-0.39,0.18-0.57c0.04-0.12,0.1-0.23,0.15-0.34c0.07-0.15,0.15-0.3,0.24-0.45   c0.07-0.12,0.15-0.24,0.23-0.35C46.88,4.82,48.34,4,50,4C52.76,4,55,6.24,55,9z M6,50c0-0.82,0.33-1.56,0.87-2.11L7.1,47.7   C7.49,47.38,8.13,47,9,47c1.65,0,3,1.35,3,3c0,0.19-0.02,0.38-0.06,0.56c-0.03,0.14-0.07,0.28-0.12,0.41   c-0.01,0.03-0.02,0.07-0.03,0.1c-0.13,0.34-0.33,0.65-0.58,0.93l-0.14,0.15C10.53,52.68,9.8,53,9,53C7.35,53,6,51.65,6,50z M30,58   c-6.08,0-11.82-1.9-16.67-5.51c0.06-0.1,0.11-0.21,0.16-0.32c0.06-0.11,0.11-0.23,0.16-0.35c0.09-0.23,0.16-0.46,0.22-0.69   c0.02-0.08,0.04-0.17,0.05-0.26C13.96,50.59,14,50.3,14,50c0-2.76-2.24-5-5-5c-0.3,0-0.6,0.04-0.89,0.09   c-0.06,0.01-0.13,0.02-0.19,0.03c-0.25,0.06-0.5,0.13-0.74,0.23c-0.11,0.04-0.21,0.09-0.31,0.14c-0.05,0.02-0.1,0.04-0.14,0.06   C3.63,40.94,2,35.59,2,30C2,14.56,14.56,2,30,2c4.87,0,9.64,1.26,13.85,3.66c-0.13,0.23-0.23,0.47-0.33,0.72   c-0.03,0.08-0.06,0.15-0.08,0.23c-0.06,0.17-0.12,0.34-0.17,0.52c-0.03,0.09-0.05,0.19-0.07,0.28c-0.04,0.17-0.07,0.35-0.1,0.53   c-0.01,0.09-0.03,0.17-0.04,0.26C43.02,8.46,43,8.73,43,9c0,3.86,3.14,7,7,7c0.3,0,0.59-0.02,0.87-0.06   c0.07-0.01,0.14-0.02,0.21-0.03c0.24-0.04,0.47-0.09,0.7-0.15c0.05-0.01,0.1-0.03,0.16-0.04c0.29-0.08,0.57-0.18,0.84-0.3   c0.01,0,0.02-0.01,0.03-0.01c0.25-0.11,0.5-0.24,0.73-0.38c0.03-0.02,0.06-0.03,0.09-0.05C56.49,19.47,58,24.64,58,30   C58,45.44,45.44,58,30,58z"/><circle cx="33" cy="34" r="1"/><circle cx="35" cy="32" r="1"/><circle cx="37" cy="30" r="1"/><circle cx="55" cy="56" r="1"/><circle cx="58" cy="50" r="1"/><circle cx="5" cy="9" r="1"/><circle cx="4" cy="2" r="1"/><circle cx="12" cy="2" r="1"/><circle cx="2" cy="57" r="1"/><circle cx="45" cy="1" r="1"/><circle cx="32" cy="6" r="1"/><circle cx="53" cy="41" r="1"/><circle cx="6" cy="29" r="1"/><circle cx="31" cy="36" r="1"/><circle cx="33" cy="30" r="1"/></g></svg>