<svg xmlns="http://www.w3.org/2000/svg" xmlns:xlink="http://www.w3.org/1999/xlink" version="1.1" x="0px" y="0px" viewBox="0 0 60 71.25" enable-background="new 0 0 60 57" xml:space="preserve"><g><path d="M3.29,29.29C3.11,29.48,3,29.74,3,30c0,0.26,0.11,0.52,0.29,0.71C3.48,30.89,3.74,31,4,31c0.26,0,0.52-0.11,0.71-0.29   C4.89,30.52,5,30.26,5,30c0-0.26-0.11-0.52-0.29-0.71C4.34,28.92,3.66,28.92,3.29,29.29z"/><path d="M58,26.01v-1.89c0-1.52-1.07-2.84-2.49-3.08c-0.6-0.1-1.17,0-1.67,0.21C52.47,9.31,42.3,0,30,0   C17.7,0,7.53,9.31,6.16,21.25c-0.5-0.21-1.07-0.31-1.67-0.21C3.07,21.28,2,22.61,2,24.12v1.95c-1.15,0.28-2,1.31-2,2.54v3.17   c0,1.15,0.88,2.1,2,2.21v1.89c0,1.52,1.07,2.84,2.49,3.08C4.66,38.99,4.83,39,5,39c0,0,0,0,0,0c0.35,0,0.68-0.07,1-0.18v2.54   l0.3,0.29c0.59,0.58,1.21,1.13,1.85,1.66v6.58l0.3,0.29C13.08,54.77,20.13,57,30.02,57c9.56,0,16.12-1.89,20.65-5.95l0.33-0.3   v-6.02c0.93-0.66,1.83-1.36,2.67-2.11l0.33-0.3v-3.51c0.31,0.11,0.65,0.18,1,0.18c0.17,0,0.34-0.01,0.51-0.04   c1.42-0.24,2.49-1.56,2.49-3.08v-1.89c1.12-0.11,2-1.06,2-2.21v-3.56C60,27.07,59.13,26.13,58,26.01z M8,36v-9.45   c0-2.96,1.5-5.78,4.01-8.14c-1.34,2.72-2.05,5.72-2.05,8.8c0,4.67,1.59,9.11,4.52,12.68c-2.85-1.12-5.07-2.32-6.49-3.18V36z    M30,6.83c0.55,0,1-0.45,1-1v-3.8c3.93,0.18,7.58,1.39,10.71,3.37c-2.37,0.82-4.17,2.89-4.6,5.42c-0.01,0-0.02,0-0.03-0.01   c-0.13-0.03-0.25-0.06-0.38-0.08c-0.35-0.07-0.71-0.15-1.07-0.21c-0.42-0.08-0.85-0.14-1.27-0.2c-0.09-0.01-0.17-0.03-0.25-0.04   l-0.2-0.03c-0.06-0.01-0.12-0.01-0.18-0.02c-0.5-0.06-1.01-0.11-1.52-0.14c-0.01,0-0.03,0-0.04,0l-0.32-0.02c-0.02,0-0.04,0-0.07,0   C31.19,10.02,30.6,10,30,10c-0.6,0-1.19,0.02-1.78,0.06c-0.02,0-0.04,0-0.07,0l-0.31,0.02c-0.02,0-0.04,0-0.05,0.01   c-0.51,0.04-1.01,0.08-1.51,0.14c-0.06,0.01-0.12,0.01-0.18,0.02l-0.29,0.04c-0.08,0.01-0.16,0.03-0.25,0.04   c-0.39,0.05-0.77,0.12-1.15,0.18c-0.38,0.07-0.77,0.15-1.15,0.23c-0.12,0.03-0.23,0.05-0.35,0.08c-0.01,0-0.02,0-0.03,0.01   c-0.44-2.53-2.23-4.59-4.6-5.42C21.42,3.41,25.07,2.2,29,2.03v3.8C29,6.38,29.45,6.83,30,6.83z M43.5,15.27   c2.93,3.31,4.54,7.54,4.54,11.94c0,4.05-1.34,7.89-3.79,11.03c-0.15-0.76-0.38-1.47-0.69-2.13c2.13-2.69,3.3-5.96,3.3-9.3   c0-5.85-3.47-10.95-8.59-13.64c0.24,0.07,0.48,0.13,0.71,0.2l0,0c0.04,0.01,0.07,0.02,0.11,0.03l0,0   C40.65,13.91,42.13,14.54,43.5,15.27z M29.51,42.98c-0.05,0-0.11,0-0.16-0.01c-0.63-0.02-1.26-0.05-1.89-0.09   c-0.19-0.01-0.38-0.02-0.57-0.04c-0.71-0.06-1.42-0.14-2.13-0.24c-0.2-0.03-0.39-0.06-0.59-0.09c-0.69-0.11-1.38-0.23-2.07-0.37   c-0.09-0.02-0.17-0.03-0.26-0.05c-0.11-0.02-0.22-0.05-0.33-0.07c-0.64-0.14-1.27-0.29-1.91-0.46c-0.13-0.03-0.26-0.06-0.39-0.1   l-1.67-1.29c0.06-1.42,0.37-2.67,0.96-3.7l0.35-0.61l-0.46-0.53c-2.12-2.45-3.25-5.39-3.25-8.52c0-7.54,6.67-13.67,14.86-13.67   s14.86,6.13,14.86,13.67c0,3.12-1.12,6.07-3.25,8.52l-0.46,0.53l0.35,0.61c0.58,1.02,0.89,2.27,0.96,3.7l-2.1,1.61   c-0.07,0.02-0.14,0.03-0.21,0.05c-0.82,0.19-1.64,0.37-2.46,0.52c-0.03,0.01-0.07,0.01-0.1,0.02c-0.76,0.13-1.52,0.24-2.28,0.33   c-0.16,0.02-0.32,0.04-0.48,0.06c-0.73,0.08-1.46,0.13-2.18,0.17c-0.21,0.01-0.42,0.02-0.64,0.03c-0.7,0.03-1.39,0.04-2.09,0.03   C29.79,42.98,29.65,42.98,29.51,42.98z M21.01,13.37L21.01,13.37c0.23-0.07,0.48-0.13,0.71-0.2c-5.12,2.69-8.59,7.79-8.59,13.64   c0,3.34,1.17,6.62,3.3,9.3c-0.3,0.66-0.53,1.37-0.69,2.13c-2.45-3.15-3.79-6.99-3.79-11.03c0-4.4,1.61-8.63,4.54-11.94   c1.36-0.73,2.84-1.36,4.4-1.86l0,0C20.94,13.39,20.98,13.38,21.01,13.37z M50.03,27.21c0-3.08-0.71-6.08-2.05-8.8   C50.5,20.77,52,23.59,52,26.55V36v1.27c-1.71,0.94-4.08,2.09-6.93,3.11C48.27,36.73,50.03,32.11,50.03,27.21z M51.53,19.49   c-1.61-2.22-3.93-4.19-6.72-5.75l-0.06-0.06L44.6,13.6c-0.22-0.12-0.45-0.21-0.67-0.33c-0.33-0.17-0.66-0.33-1-0.49   c-0.45-0.21-0.91-0.41-1.38-0.59c-0.45-0.18-0.91-0.35-1.37-0.51c-0.16-0.05-0.31-0.12-0.47-0.17l-0.11-0.04   c-0.17-0.05-0.35-0.1-0.53-0.15C39.4,8.9,41.45,7.03,43.95,7C47.75,10.13,50.49,14.5,51.53,19.49z M16.05,7   c2.5,0.02,4.55,1.9,4.88,4.31c-0.17,0.05-0.35,0.1-0.52,0.15L20.3,11.5c-0.16,0.05-0.31,0.12-0.47,0.18   c-0.47,0.16-0.92,0.33-1.38,0.51c-0.47,0.19-0.93,0.38-1.38,0.59c-0.34,0.15-0.67,0.31-0.99,0.48c-0.22,0.11-0.46,0.21-0.68,0.33   l-0.15,0.08l-0.06,0.06c-2.8,1.56-5.12,3.53-6.73,5.75C9.51,14.5,12.25,10.13,16.05,7z M4.82,36.98C4.36,36.91,4,36.42,4,35.88   v-2.49C4,32.62,3.38,32,2.61,32H2.22C2.1,32,2,31.9,2,31.78v-3.17C2,28.27,2.27,28,2.61,28C3.38,28,4,27.38,4,26.61v-2.49   c0-0.54,0.36-1.03,0.82-1.11C4.88,23,4.94,23,5,23c0.55,0,1,0.45,1,1v2.55V36c0,0.26-0.1,0.52-0.29,0.71   C5.47,36.94,5.15,37.04,4.82,36.98z M49,46.04v3.81C44.86,53.36,38.81,55,30.02,55c-9.11,0-15.62-1.95-19.87-5.95v-4.2   c0.02,0.01,0.04,0.03,0.06,0.04c0.63,0.44,1.28,0.85,1.95,1.25c0.1,0.06,0.2,0.12,0.3,0.18c0.65,0.38,1.32,0.73,2.01,1.07   c0.17,0.08,0.35,0.16,0.52,0.24c0.61,0.29,1.23,0.56,1.87,0.81c0.15,0.06,0.3,0.12,0.45,0.18c0.64,0.24,1.29,0.46,1.94,0.67   c0.24,0.08,0.48,0.15,0.72,0.22c0.69,0.2,1.39,0.39,2.1,0.55c0.2,0.05,0.41,0.08,0.61,0.13c0.62,0.13,1.25,0.25,1.88,0.35   c0.19,0.03,0.38,0.06,0.57,0.09c0.77,0.11,1.54,0.19,2.32,0.25c0.19,0.02,0.38,0.03,0.57,0.04C28.84,50.96,29.67,51,30.5,51   c0.74,0,1.47-0.03,2.21-0.07c0.18-0.01,0.36-0.02,0.54-0.04c0.73-0.05,1.45-0.12,2.16-0.21c0.05-0.01,0.1-0.02,0.15-0.02   c0.67-0.09,1.34-0.2,2-0.33c0.19-0.04,0.37-0.07,0.56-0.11c0.69-0.14,1.37-0.3,2.05-0.48c0.1-0.03,0.2-0.06,0.3-0.09   c0.6-0.16,1.18-0.34,1.77-0.54c0.18-0.06,0.37-0.12,0.55-0.19c0.65-0.23,1.29-0.47,1.92-0.73c0.11-0.05,0.22-0.1,0.33-0.14   c0.56-0.24,1.11-0.49,1.65-0.76c0.14-0.07,0.29-0.14,0.43-0.21c0.63-0.32,1.24-0.66,1.84-1.01C48.96,46.06,48.98,46.05,49,46.04z    M49.86,43.1l-0.23,0.16c-0.08,0.06-0.16,0.11-0.25,0.17c-1.26,0.86-2.6,1.62-4,2.28c-0.09,0.04-0.17,0.08-0.26,0.12   c-0.65,0.3-1.32,0.58-1.99,0.84c-0.13,0.05-0.26,0.1-0.4,0.15c-0.68,0.25-1.36,0.49-2.06,0.7c-0.1,0.03-0.2,0.06-0.3,0.08   c-0.68,0.2-1.37,0.38-2.07,0.53c-0.08,0.02-0.15,0.04-0.23,0.05c-0.73,0.16-1.46,0.29-2.2,0.4c-0.14,0.02-0.29,0.04-0.43,0.06   c-0.73,0.1-1.47,0.18-2.21,0.24c-0.13,0.01-0.26,0.02-0.39,0.02C32.06,48.97,31.28,49,30.5,49c-0.52,0-1.04-0.01-1.55-0.03   c-0.14-0.01-0.28-0.02-0.43-0.03c-0.38-0.02-0.76-0.04-1.13-0.08c-0.15-0.01-0.31-0.03-0.46-0.05c-0.37-0.04-0.73-0.07-1.09-0.12   c-0.15-0.02-0.29-0.04-0.43-0.06c-0.37-0.05-0.74-0.11-1.11-0.17c-0.13-0.02-0.26-0.05-0.39-0.07c-0.39-0.07-0.77-0.15-1.15-0.23   c-0.11-0.02-0.22-0.05-0.33-0.07c-0.4-0.09-0.8-0.19-1.2-0.3c-0.09-0.02-0.17-0.05-0.26-0.07c-0.43-0.12-0.86-0.25-1.29-0.39   c-0.05-0.02-0.1-0.03-0.15-0.05c-1.43-0.47-2.82-1.03-4.14-1.67c-0.17-0.08-0.34-0.17-0.51-0.26c-0.25-0.13-0.49-0.25-0.74-0.38   c-0.23-0.12-0.45-0.25-0.67-0.38c-0.18-0.1-0.35-0.2-0.53-0.31c-0.25-0.15-0.5-0.31-0.74-0.47c-0.14-0.09-0.28-0.18-0.42-0.27   c-0.26-0.17-0.51-0.35-0.77-0.53c-0.12-0.09-0.24-0.17-0.36-0.26c-0.25-0.19-0.5-0.38-0.75-0.57c-0.66-0.53-1.3-1.07-1.91-1.66   v-1.49c1.81,1.02,4.41,2.3,7.62,3.42l0,0.01l0.63,0.21c0.07,0.02,0.14,0.04,0.21,0.07c0.41,0.13,0.83,0.26,1.26,0.39   c0.15,0.04,0.3,0.09,0.45,0.13c0.05,0.01,0.09,0.03,0.13,0.04l0.01,0.01l0.19,0.05c0.01,0,0.03,0.01,0.04,0.01   c0.3,0.08,0.62,0.16,0.93,0.24c0.16,0.04,0.32,0.08,0.48,0.12c0.4,0.1,0.81,0.19,1.23,0.28c0.03,0.01,0.07,0.02,0.1,0.02   c0.09,0.02,0.18,0.04,0.27,0.06c0.08,0.02,0.16,0.03,0.24,0.04c0.37,0.07,0.74,0.14,1.11,0.21c0.26,0.05,0.53,0.09,0.79,0.13   c0.24,0.04,0.48,0.08,0.72,0.11c0.1,0.01,0.2,0.02,0.29,0.04c0.32,0.04,0.64,0.08,0.96,0.12c0.3,0.03,0.59,0.06,0.89,0.09   c0.25,0.02,0.5,0.04,0.74,0.06c0.16,0.01,0.31,0.02,0.47,0.03c0.24,0.02,0.48,0.03,0.72,0.04C29.17,44.98,29.84,45,30.5,45   c0.59,0,1.19-0.02,1.78-0.04c0.2-0.01,0.4-0.02,0.6-0.03c0.14-0.01,0.28-0.02,0.42-0.03c0.24-0.02,0.49-0.03,0.73-0.05   c0.29-0.02,0.57-0.05,0.85-0.08c0.26-0.03,0.52-0.05,0.79-0.09c0.04,0,0.08-0.01,0.12-0.01c0.3-0.04,0.6-0.08,0.9-0.12   c0.23-0.03,0.47-0.07,0.7-0.11c0.32-0.05,0.64-0.11,0.96-0.17c0.03,0,0.05-0.01,0.08-0.02c0.01,0,0.01,0,0.02,0   c0.19-0.04,0.38-0.07,0.58-0.11c0.39-0.08,0.77-0.16,1.14-0.24c0.16-0.04,0.32-0.07,0.47-0.11c0.41-0.1,0.81-0.2,1.21-0.3   c0.14-0.04,0.27-0.07,0.41-0.11c0.42-0.12,0.83-0.24,1.24-0.36c0.07-0.02,0.15-0.04,0.22-0.06l0.63-0.2l0,0   c3.08-1,5.68-2.18,7.66-3.2v1.89C51.32,42.01,50.6,42.57,49.86,43.1z M58,31.78C58,31.9,57.9,32,57.77,32   C56.79,32,56,32.79,56,33.77v2.11c0,0.54-0.36,1.03-0.82,1.11C54.55,37.1,54,36.61,54,36v-9.45V24c0-0.55,0.45-1,1-1   c0.06,0,0.12,0,0.18,0.02c0.46,0.08,0.82,0.56,0.82,1.11v2.11c0,0.97,0.79,1.77,1.78,1.77C57.9,28,58,28.1,58,28.22V31.78z"/><path d="M55.29,29.29C55.11,29.48,55,29.74,55,30c0,0.26,0.11,0.52,0.29,0.71C55.48,30.89,55.74,31,56,31   c0.26,0,0.52-0.11,0.71-0.29C56.89,30.52,57,30.26,57,30c0-0.26-0.11-0.52-0.29-0.71C56.34,28.92,55.66,28.92,55.29,29.29z"/><path d="M49,7h1.59L53,9.41V11c0,0.55,0.45,1,1,1s1-0.45,1-1V9.41L57.41,7H59c0.55,0,1-0.45,1-1s-0.45-1-1-1h-1.59L55,2.59V1   c0-0.55-0.45-1-1-1s-1,0.45-1,1v1.59L50.59,5H49c-0.55,0-1,0.45-1,1S48.45,7,49,7z M54,4.41L55.59,6L54,7.59L52.41,6L54,4.41z"/><circle cx="23.66" cy="26.41" r="0.79"/><circle cx="36.34" cy="26.41" r="0.79"/><path d="M19.69,21.58c0.26,0,0.51-0.1,0.71-0.29c1.16-1.16,2.7-1.8,4.34-1.8c1.64,0,3.18,0.64,4.34,1.8c0.39,0.39,1.02,0.39,1.41,0   c2.39-2.39,6.29-2.39,8.68,0c0.2,0.2,0.45,0.29,0.71,0.29s0.51-0.1,0.71-0.29c0.39-0.39,0.39-1.02,0-1.41   c-2.95-2.95-7.61-3.15-10.8-0.62c-1.43-1.14-3.19-1.76-5.05-1.76c-2.17,0-4.22,0.85-5.75,2.39c-0.39,0.39-0.39,1.02,0,1.41   C19.18,21.48,19.43,21.58,19.69,21.58z"/><path d="M27.03,26.41c0-2.3-1.87-4.17-4.17-4.17s-4.17,1.87-4.17,4.17s1.87,4.17,4.17,4.17S27.03,28.71,27.03,26.41z M20.69,26.41   c0-1.2,0.97-2.17,2.17-2.17c1.2,0,2.17,0.97,2.17,2.17c0,1.2-0.97,2.17-2.17,2.17C21.66,28.59,20.69,27.61,20.69,26.41z"/><path d="M37.14,22.24c-2.3,0-4.17,1.87-4.17,4.17s1.87,4.17,4.17,4.17s4.17-1.87,4.17-4.17S39.44,22.24,37.14,22.24z M37.14,28.59   c-1.2,0-2.17-0.97-2.17-2.17c0-1.2,0.97-2.17,2.17-2.17c1.2,0,2.17,0.97,2.17,2.17C39.31,27.61,38.34,28.59,37.14,28.59z"/><path d="M31,36.44c1.79-1.51,4.46-1.44,6.14,0.24c0.2,0.2,0.45,0.29,0.71,0.29s0.51-0.1,0.71-0.29c0.39-0.39,0.39-1.02,0-1.41   c-2.34-2.34-6.03-2.53-8.6-0.57c-2.57-1.96-6.25-1.77-8.6,0.57c-0.39,0.39-0.39,1.02,0,1.41s1.02,0.39,1.41,0   c1.71-1.71,4.44-1.75,6.22-0.17v4.18c0,0.55,0.45,1,1,1s1-0.45,1-1V36.44z"/></g></svg>