<svg xmlns="http://www.w3.org/2000/svg" xmlns:xlink="http://www.w3.org/1999/xlink" version="1.1" x="0px" y="0px" viewBox="0 0 56 71.25" enable-background="new 0 0 56 57" xml:space="preserve"><g><path fill="#000000" d="M16.35,37.06c-0.52-0.19-1.09,0.07-1.29,0.58l-5,13.29c-0.19,0.52,0.07,1.09,0.58,1.29   c0.12,0.04,0.23,0.06,0.35,0.06c0.4,0,0.79-0.25,0.94-0.65l5-13.29C17.13,37.84,16.87,37.26,16.35,37.06z"/><path fill="#000000" d="M43.94,37.65c-0.19-0.52-0.77-0.78-1.29-0.58c-0.52,0.19-0.78,0.77-0.58,1.29l5,13.29   c0.15,0.4,0.53,0.65,0.94,0.65c0.12,0,0.24-0.02,0.35-0.06c0.52-0.19,0.78-0.77,0.58-1.29L43.94,37.65z"/><path fill="#000000" d="M13.92,22.04c-0.49-0.14-0.99-0.22-1.48-0.22c-1.59,0-2.84,0.77-3.19,1.97c-0.24,0.83-0.01,1.75,0.64,2.52   c0.56,0.67,1.4,1.19,2.35,1.47c0.49,0.14,0.99,0.22,1.48,0.22c1.59,0,2.84-0.77,3.19-1.97c0.24-0.83,0.01-1.75-0.64-2.52   C15.71,22.84,14.87,22.32,13.92,22.04z M13.72,26c-0.3,0-0.61-0.05-0.92-0.14c-0.57-0.17-1.07-0.47-1.38-0.84   c-0.21-0.25-0.3-0.5-0.25-0.67c0.07-0.26,0.54-0.53,1.27-0.53c0.3,0,0.61,0.05,0.92,0.14c0.57,0.17,1.07,0.47,1.38,0.84   c0.21,0.25,0.3,0.5,0.25,0.67C14.91,25.73,14.44,26,13.72,26z"/><path fill="#000000" d="M25.1,40.56c-0.54-0.07-1.05,0.31-1.13,0.86l-1.97,14.45c-0.07,0.55,0.31,1.05,0.86,1.13   C22.91,57,22.96,57,23,57c0.49,0,0.92-0.36,0.99-0.86l1.97-14.45C26.04,41.14,25.65,40.64,25.1,40.56z"/><path fill="#000000" d="M33.9,40.56c-0.55,0.07-0.93,0.58-0.86,1.13l1.97,14.45C35.08,56.64,35.51,57,36,57   c0.05,0,0.09,0,0.14-0.01c0.55-0.07,0.93-0.58,0.86-1.13l-1.97-14.45C34.95,40.87,34.44,40.49,33.9,40.56z"/><path fill="#000000" d="M17.61,15.88c0.07,0.02,0.14,0.02,0.21,0.02c0.46,0,0.88-0.32,0.98-0.79c0.91-4.2,4.83-7.37,9.13-7.38   c0.55,0,1-0.45,1-1c0-0.55-0.45-1-1-1c0,0,0,0,0,0c-5.21,0-9.98,3.85-11.08,8.95C16.73,15.23,17.07,15.77,17.61,15.88z"/><path fill="#000000" d="M46.56,21c-0.49,0-0.99,0.07-1.48,0.22c-0.95,0.28-1.79,0.8-2.35,1.47c-0.65,0.77-0.88,1.69-0.64,2.52   c0.35,1.2,1.6,1.97,3.19,1.97c0.49,0,0.99-0.07,1.48-0.22c0.95-0.28,1.79-0.8,2.35-1.47c0.65-0.77,0.88-1.69,0.64-2.52   C49.4,21.77,48.15,21,46.56,21z M47.58,24.2c-0.31,0.36-0.81,0.67-1.38,0.84c-0.31,0.09-0.62,0.14-0.92,0.14   c-0.72,0-1.19-0.27-1.27-0.53c-0.05-0.17,0.04-0.43,0.25-0.67c0.31-0.36,0.81-0.67,1.38-0.84c0.31-0.09,0.62-0.14,0.92-0.14   c0.72,0,1.19,0.27,1.27,0.53C47.88,23.7,47.78,23.96,47.58,24.2z"/><path fill="#000000" d="M45.02,10.07C41.98,4.11,35.72,0,28.5,0c-7.25,0-13.52,4.14-16.55,10.13C5.01,12.37,0,17.33,0,22   c0,7.29,12.3,13,28,13s28-5.71,28-13C56,17.38,51.28,12.26,45.02,10.07z M28.5,2c6.61,0,12.32,3.84,14.95,9.37   c0.01,0.02,0.01,0.04,0.02,0.06c0.92,1.96,1.43,4.02,1.52,6.14c-5.07,2.1-10.51,3.17-16.16,3.17c-8.38,0-14.88-2.37-16.81-3.16   c0.09-2.12,0.6-4.18,1.52-6.14c0.01-0.02,0.01-0.04,0.02-0.06C16.18,5.84,21.89,2,28.5,2z M28,33C13.91,33,2,27.96,2,22   c0-2.94,3.1-7.01,8.9-9.37c-0.09,0.27-0.16,0.55-0.24,0.83c-0.07,0.26-0.14,0.51-0.2,0.77c-0.05,0.24-0.1,0.48-0.15,0.72   c-0.06,0.34-0.12,0.69-0.16,1.03c-0.02,0.19-0.05,0.38-0.07,0.57C10.03,17.11,10,17.66,10,18.22c0,0.39,0.22,0.74,0.57,0.9   c0.31,0.15,7.78,3.6,18.25,3.6c0,0,0,0,0,0c5.39,0,10.59-0.92,15.49-2.75c0.7-0.26,1.39-0.54,2.08-0.84   c0.37-0.16,0.6-0.52,0.6-0.92c0-0.56-0.03-1.11-0.09-1.66c-0.02-0.19-0.04-0.38-0.07-0.57c-0.04-0.35-0.1-0.69-0.16-1.03   c-0.04-0.24-0.09-0.47-0.14-0.71c-0.06-0.26-0.13-0.52-0.2-0.77c-0.07-0.27-0.14-0.54-0.23-0.81C51.09,14.99,54,19.05,54,22   C54,27.96,42.09,33,28,33z"/><path fill="#000000" d="M29.5,25c-2.57,0-4.5,1.29-4.5,3s1.93,3,4.5,3s4.5-1.29,4.5-3S32.07,25,29.5,25z M29.5,29   c-1.62,0-2.5-0.71-2.5-1s0.88-1,2.5-1s2.5,0.71,2.5,1S31.12,29,29.5,29z"/></g></svg>